<?xml version="1.0" encoding="utf-8"?><svg id="robot" image-rendering="auto" baseProfile="basic" version="1.1" x="0px" y="0px" width="200" height="200" xmlns="http://www.w3.org/2000/svg" xmlns:xlink="http://www.w3.org/1999/xlink"><defs><g id=".__D0.__90.__D0.__BD.__D0.__B8.__D0.__BC.__D0.__B0.__D1.__86.__D0.__B8.__D1.__8F-1f0" overflow="visible"><use xlink:href="#.__D0.__A1.__D0.__B8.__D0.__BC.__D0.__B2.__D0.__BE.__D0.__BB-3" transform="translate(-37.05 0)"/><use xlink:href="#.__D0.__A1.__D0.__B8.__D0.__BC.__D0.__B2.__D0.__BE.__D0.__BB-2---2" transform="matrix(-1 0 0 1 37.05 0)"/></g><g id=".__D0.__90.__D0.__BD.__D0.__B8.__D0.__BC.__D0.__B0.__D1.__86.__D0.__B8.__D1.__8F-1f2o2" overflow="visible"><use xlink:href="#.__D0.__A1.__D0.__B8.__D0.__BC.__D0.__B2.__D0.__BE.__D0.__BB-3" transform="translate(-37.05 0)"/><use xlink:href="#.__D0.__A1.__D0.__B8.__D0.__BC.__D0.__B2.__D0.__BE.__D0.__BB-2---2" transform="matrix(-1 .004 .004 1 37.1 -.05)"/></g><g id=".__D0.__90.__D0.__BD.__D0.__B8.__D0.__BC.__D0.__B0.__D1.__86.__D0.__B8.__D1.__8F-1f3o3" overflow="visible"><use xlink:href="#.__D0.__A1.__D0.__B8.__D0.__BC.__D0.__B2.__D0.__BE.__D0.__BB-3" transform="translate(-37.05 0)"/><use xlink:href="#.__D0.__A1.__D0.__B8.__D0.__BC.__D0.__B2.__D0.__BE.__D0.__BB-2---2" transform="matrix(-1 .009 .009 1 37.15 -.05)"/></g><g id=".__D0.__90.__D0.__BD.__D0.__B8.__D0.__BC.__D0.__B0.__D1.__86.__D0.__B8.__D1.__8F-1f4o4" overflow="visible"><use xlink:href="#.__D0.__A1.__D0.__B8.__D0.__BC.__D0.__B2.__D0.__BE.__D0.__BB-3" transform="translate(-37.05 0)"/><use xlink:href="#.__D0.__A1.__D0.__B8.__D0.__BC.__D0.__B2.__D0.__BE.__D0.__BB-2---2" transform="matrix(-1 .018 .018 1 37.3 -.15)"/></g><g id=".__D0.__90.__D0.__BD.__D0.__B8.__D0.__BC.__D0.__B0.__D1.__86.__D0.__B8.__D1.__8F-1f5o5" overflow="visible"><use xlink:href="#.__D0.__A1.__D0.__B8.__D0.__BC.__D0.__B2.__D0.__BE.__D0.__BB-3" transform="translate(-37.05 0)"/><use xlink:href="#.__D0.__A1.__D0.__B8.__D0.__BC.__D0.__B2.__D0.__BE.__D0.__BB-2---2" transform="matrix(-1 .027 .027 1 37.45 -.15)"/></g><g id=".__D0.__90.__D0.__BD.__D0.__B8.__D0.__BC.__D0.__B0.__D1.__86.__D0.__B8.__D1.__8F-1f6o6" overflow="visible"><use xlink:href="#.__D0.__A1.__D0.__B8.__D0.__BC.__D0.__B2.__D0.__BE.__D0.__BB-3" transform="translate(-37.05 0)"/><use xlink:href="#.__D0.__A1.__D0.__B8.__D0.__BC.__D0.__B2.__D0.__BE.__D0.__BB-2---2" transform="matrix(-1 .04 .04 1 37.7 -.25)"/></g><g id=".__D0.__90.__D0.__BD.__D0.__B8.__D0.__BC.__D0.__B0.__D1.__86.__D0.__B8.__D1.__8F-1f7o7" overflow="visible"><use xlink:href="#.__D0.__A1.__D0.__B8.__D0.__BC.__D0.__B2.__D0.__BE.__D0.__BB-3" transform="translate(-37.05 0)"/><use xlink:href="#.__D0.__A1.__D0.__B8.__D0.__BC.__D0.__B2.__D0.__BE.__D0.__BB-2---2" transform="matrix(-.998 .053 .053 .998 37.85 -.35)"/></g><g id=".__D0.__90.__D0.__BD.__D0.__B8.__D0.__BC.__D0.__B0.__D1.__86.__D0.__B8.__D1.__8F-1f8o8" overflow="visible"><use xlink:href="#.__D0.__A1.__D0.__B8.__D0.__BC.__D0.__B2.__D0.__BE.__D0.__BB-3" transform="translate(-37.05 0)"/><use xlink:href="#.__D0.__A1.__D0.__B8.__D0.__BC.__D0.__B2.__D0.__BE.__D0.__BB-2---2" transform="matrix(-.997 .07 .07 .997 38.1 -.55)"/></g><g id=".__D0.__90.__D0.__BD.__D0.__B8.__D0.__BC.__D0.__B0.__D1.__86.__D0.__B8.__D1.__8F-1f9o9" overflow="visible"><use xlink:href="#.__D0.__A1.__D0.__B8.__D0.__BC.__D0.__B2.__D0.__BE.__D0.__BB-3" transform="translate(-37.05 0)"/><use xlink:href="#.__D0.__A1.__D0.__B8.__D0.__BC.__D0.__B2.__D0.__BE.__D0.__BB-2---2" transform="matrix(-.996 .083 .083 .996 38.35 -.6)"/></g><g id=".__D0.__90.__D0.__BD.__D0.__B8.__D0.__BC.__D0.__B0.__D1.__86.__D0.__B8.__D1.__8F-1f10o10" overflow="visible"><use xlink:href="#.__D0.__A1.__D0.__B8.__D0.__BC.__D0.__B2.__D0.__BE.__D0.__BB-3" transform="translate(-37.05 0)"/><use xlink:href="#.__D0.__A1.__D0.__B8.__D0.__BC.__D0.__B2.__D0.__BE.__D0.__BB-2---2" transform="matrix(-.995 .092 .092 .995 38.5 -.7)"/></g><g id=".__D0.__90.__D0.__BD.__D0.__B8.__D0.__BC.__D0.__B0.__D1.__86.__D0.__B8.__D1.__8F-1f11o11" overflow="visible"><use xlink:href="#.__D0.__A1.__D0.__B8.__D0.__BC.__D0.__B2.__D0.__BE.__D0.__BB-3" transform="translate(-37.05 0)"/><use xlink:href="#.__D0.__A1.__D0.__B8.__D0.__BC.__D0.__B2.__D0.__BE.__D0.__BB-2---2" transform="matrix(-.995 .101 .101 .995 38.6 -.75)"/></g><g id=".__D0.__90.__D0.__BD.__D0.__B8.__D0.__BC.__D0.__B0.__D1.__86.__D0.__B8.__D1.__8F-1f12o12" overflow="visible"><use xlink:href="#.__D0.__A1.__D0.__B8.__D0.__BC.__D0.__B2.__D0.__BE.__D0.__BB-3" transform="translate(-37.05 0)"/><use xlink:href="#.__D0.__A1.__D0.__B8.__D0.__BC.__D0.__B2.__D0.__BE.__D0.__BB-2---2" transform="matrix(-.994 .105 .105 .994 38.7 -.8)"/></g><g id=".__D0.__90.__D0.__BD.__D0.__B8.__D0.__BC.__D0.__B0.__D1.__86.__D0.__B8.__D1.__8F-1f13o13" overflow="visible"><use xlink:href="#.__D0.__A1.__D0.__B8.__D0.__BC.__D0.__B2.__D0.__BE.__D0.__BB-3" transform="translate(-37.05 0)"/><use xlink:href="#.__D0.__A1.__D0.__B8.__D0.__BC.__D0.__B2.__D0.__BE.__D0.__BB-2---2" transform="matrix(-.994 .11 .11 .994 38.75 -.85)"/></g><g id=".__D0.__90.__D0.__BD.__D0.__B8.__D0.__BC.__D0.__B0.__D1.__86.__D0.__B8.__D1.__8F-1f14o14" overflow="visible"><use xlink:href="#.__D0.__A1.__D0.__B8.__D0.__BC.__D0.__B2.__D0.__BE.__D0.__BB-3" transform="translate(-37.05 0)"/><use xlink:href="#.__D0.__A1.__D0.__B8.__D0.__BC.__D0.__B2.__D0.__BE.__D0.__BB-2---2" transform="matrix(-.994 .113 .113 .994 38.8 -.8)"/></g><g id=".__D0.__90.__D0.__BD.__D0.__B8.__D0.__BC.__D0.__B0.__D1.__86.__D0.__B8.__D1.__8F-1f15o15" overflow="visible"><use xlink:href="#.__D0.__A1.__D0.__B8.__D0.__BC.__D0.__B2.__D0.__BE.__D0.__BB-3" transform="translate(-37.05 0)"/><use xlink:href="#.__D0.__A1.__D0.__B8.__D0.__BC.__D0.__B2.__D0.__BE.__D0.__BB-2---2" transform="matrix(-.994 .11 .11 .994 38.75 -.8)"/></g><g id=".__D0.__90.__D0.__BD.__D0.__B8.__D0.__BC.__D0.__B0.__D1.__86.__D0.__B8.__D1.__8F-1f16o16" overflow="visible"><use xlink:href="#.__D0.__A1.__D0.__B8.__D0.__BC.__D0.__B2.__D0.__BE.__D0.__BB-3" transform="translate(-37.05 0)"/><use xlink:href="#.__D0.__A1.__D0.__B8.__D0.__BC.__D0.__B2.__D0.__BE.__D0.__BB-2---2" transform="matrix(-.994 .109 .109 .994 38.7 -.75)"/></g><g id=".__D0.__90.__D0.__BD.__D0.__B8.__D0.__BC.__D0.__B0.__D1.__86.__D0.__B8.__D1.__8F-1f17o17" overflow="visible"><use xlink:href="#.__D0.__A1.__D0.__B8.__D0.__BC.__D0.__B2.__D0.__BE.__D0.__BB-3" transform="translate(-37.05 0)"/><use xlink:href="#.__D0.__A1.__D0.__B8.__D0.__BC.__D0.__B2.__D0.__BE.__D0.__BB-2---2" transform="matrix(-.995 .101 .101 .995 38.6 -.7)"/></g><g id=".__D0.__90.__D0.__BD.__D0.__B8.__D0.__BC.__D0.__B0.__D1.__86.__D0.__B8.__D1.__8F-1f18o18" overflow="visible"><use xlink:href="#.__D0.__A1.__D0.__B8.__D0.__BC.__D0.__B2.__D0.__BE.__D0.__BB-3" transform="translate(-37.05 0)"/><use xlink:href="#.__D0.__A1.__D0.__B8.__D0.__BC.__D0.__B2.__D0.__BE.__D0.__BB-2---2" transform="matrix(-.995 .096 .096 .995 38.5 -.65)"/></g><g id=".__D0.__90.__D0.__BD.__D0.__B8.__D0.__BC.__D0.__B0.__D1.__86.__D0.__B8.__D1.__8F-1f19o19" overflow="visible"><use xlink:href="#.__D0.__A1.__D0.__B8.__D0.__BC.__D0.__B2.__D0.__BE.__D0.__BB-3" transform="translate(-37.05 0)"/><use xlink:href="#.__D0.__A1.__D0.__B8.__D0.__BC.__D0.__B2.__D0.__BE.__D0.__BB-2---2" transform="matrix(-.996 .087 .087 .996 38.4 -.65)"/></g><g id=".__D0.__90.__D0.__BD.__D0.__B8.__D0.__BC.__D0.__B0.__D1.__86.__D0.__B8.__D1.__8F-1f20o20" overflow="visible"><use xlink:href="#.__D0.__A1.__D0.__B8.__D0.__BC.__D0.__B2.__D0.__BE.__D0.__BB-3" transform="translate(-37.05 0)"/><use xlink:href="#.__D0.__A1.__D0.__B8.__D0.__BC.__D0.__B2.__D0.__BE.__D0.__BB-2---2" transform="matrix(-.997 .075 .075 .997 38.2 -.55)"/></g><g id=".__D0.__90.__D0.__BD.__D0.__B8.__D0.__BC.__D0.__B0.__D1.__86.__D0.__B8.__D1.__8F-1f21o21" overflow="visible"><use xlink:href="#.__D0.__A1.__D0.__B8.__D0.__BC.__D0.__B2.__D0.__BE.__D0.__BB-3" transform="translate(-37.05 0)"/><use xlink:href="#.__D0.__A1.__D0.__B8.__D0.__BC.__D0.__B2.__D0.__BE.__D0.__BB-2---2" transform="matrix(-.998 .062 .062 .998 38 -.45)"/></g><g id=".__D0.__90.__D0.__BD.__D0.__B8.__D0.__BC.__D0.__B0.__D1.__86.__D0.__B8.__D1.__8F-1f22o22" overflow="visible"><use xlink:href="#.__D0.__A1.__D0.__B8.__D0.__BC.__D0.__B2.__D0.__BE.__D0.__BB-3" transform="translate(-37.05 0)"/><use xlink:href="#.__D0.__A1.__D0.__B8.__D0.__BC.__D0.__B2.__D0.__BE.__D0.__BB-2---2" transform="matrix(-1 .048 .048 1 37.8 -.25)"/></g><g id=".__D0.__90.__D0.__BD.__D0.__B8.__D0.__BC.__D0.__B0.__D1.__86.__D0.__B8.__D1.__8F-1f23o23" overflow="visible"><use xlink:href="#.__D0.__A1.__D0.__B8.__D0.__BC.__D0.__B2.__D0.__BE.__D0.__BB-3" transform="translate(-37.05 0)"/><use xlink:href="#.__D0.__A1.__D0.__B8.__D0.__BC.__D0.__B2.__D0.__BE.__D0.__BB-2---2" transform="matrix(-1 .035 .035 1 37.6 -.2)"/></g><g id=".__D0.__90.__D0.__BD.__D0.__B8.__D0.__BC.__D0.__B0.__D1.__86.__D0.__B8.__D1.__8F-1f24o24" overflow="visible"><use xlink:href="#.__D0.__A1.__D0.__B8.__D0.__BC.__D0.__B2.__D0.__BE.__D0.__BB-3" transform="translate(-37.05 0)"/><use xlink:href="#.__D0.__A1.__D0.__B8.__D0.__BC.__D0.__B2.__D0.__BE.__D0.__BB-2---2" transform="matrix(-1 .023 .023 1 37.4 -.1)"/></g><g id=".__D0.__90.__D0.__BD.__D0.__B8.__D0.__BC.__D0.__B0.__D1.__86.__D0.__B8.__D1.__8F-1f25o25" overflow="visible"><use xlink:href="#.__D0.__A1.__D0.__B8.__D0.__BC.__D0.__B2.__D0.__BE.__D0.__BB-3" transform="translate(-37.05 0)"/><use xlink:href="#.__D0.__A1.__D0.__B8.__D0.__BC.__D0.__B2.__D0.__BE.__D0.__BB-2---2" transform="matrix(-1 .014 .014 1 37.25 -.1)"/></g><g id=".__D0.__90.__D0.__BD.__D0.__B8.__D0.__BC.__D0.__B0.__D1.__86.__D0.__B8.__D1.__8F-1f26o26" overflow="visible"><use xlink:href="#.__D0.__A1.__D0.__B8.__D0.__BC.__D0.__B2.__D0.__BE.__D0.__BB-3" transform="translate(-37.05 0)"/><use xlink:href="#.__D0.__A1.__D0.__B8.__D0.__BC.__D0.__B2.__D0.__BE.__D0.__BB-2---2" transform="matrix(-1 .009 .009 1 37.2 -.05)"/></g><g id=".__D0.__90.__D0.__BD.__D0.__B8.__D0.__BC.__D0.__B0.__D1.__86.__D0.__B8.__D1.__8F-1f27o27" overflow="visible"><use xlink:href="#.__D0.__A1.__D0.__B8.__D0.__BC.__D0.__B2.__D0.__BE.__D0.__BB-3" transform="translate(-37.05 0)"/><use xlink:href="#.__D0.__A1.__D0.__B8.__D0.__BC.__D0.__B2.__D0.__BE.__D0.__BB-2---2" transform="matrix(-1 .001 .001 1 37.05 0)"/></g><g id=".__D0.__A1.__D0.__B8.__D0.__BC.__D0.__B2.__D0.__BE.__D0.__BB-2---2" overflow="visible"><path fill="#003B57" stroke="none" d="M1.9 -18.85Q1.45 -19.45 .7 -19.7 -.85 -20.25 -2.2 -20.8 -5.45 -22.3 -8.35 -24.55 -17.4 -31.7 -20.35 -44.05 -20.5 -44.85 -21.2 -45.25 -21.95 -45.7 -22.7 -45.45L-23.15 -45.25Q-24.45 -44.5 -24.15 -43.15 -20.9 -29.3 -10.5 -21.35 -7.25 -18.8 -3.6 -17.2 -1.6 -16.35 -.25 -15.95 .45 -15.75 1.15 -16.15 1.85 -16.55 2.1 -17.3 2.3 -18.15 1.9 -18.85Z"/><path fill="#003B57" stroke="none" d="M-14 -51.4Q-14.05 -52.2 -14.6 -52.7 -15.2 -53.25 -16 -53.25 -16.85 -53.25 -17.35 -52.6 -17.9 -52 -17.85 -51.25 -17.75 -49.15 -19.25 -47.7 -20.6 -46.1 -22.65 -46.15 -24.7 -46.05 -26.2 -47.4 -27.7 -48.8 -27.8 -50.9 -27.8 -51.7 -28.4 -52.2 -29.05 -52.8 -29.85 -52.75 -30.3 -52.75 -30.7 -52.5 -31.7 -51.9 -31.7 -50.8 -31.5 -47.1 -28.85 -44.6 -26.2 -42.1 -22.55 -42.2 -18.85 -42.35 -16.4 -45.1 -13.9 -47.8 -14 -51.4Z"/><path fill="#BDEAFF" stroke="none" d="M-15.6 -21.55L-9.75 -30Q-13 -32.65 -16.9 -39.05L-22.9 -34.85Q-21.95 -30.4 -18.65 -25.5L-15.6 -21.55Z"/><path fill="#003B57" stroke="none" d="M14.9 -13.5Q14.55 -20.35 11.15 -25 7.8 -29.65 3.45 -29.45 -.95 -29.2 -3.75 -24.15 -6.5 -19.15 -6.15 -12.3 -5.75 -5.45 -2.35 -.8 1 3.85 5.35 3.6 9.7 3.4 12.5 -1.65 15.3 -6.65 14.9 -13.5Z"/></g><g id=".__D0.__A1.__D0.__B8.__D0.__BC.__D0.__B2.__D0.__BE.__D0.__BB-3" overflow="visible"><path fill="#003B57" stroke="none" d="M-2.95 -12.2Q-2.1 -13.4 -1 -14.65 -.45 -15.2 -.4 -16 -.4 -16.8 -1 -17.4 -1.55 -17.95 -2.35 -17.95 -3.15 -17.95 -3.7 -17.4 -4.7 -16.4 -5.95 -14.65 -8.3 -11.45 -9.9 -7.6 -14.9 4.5 -10.8 18.1 -10.4 19.45 -8.9 19.45L-8.35 19.4Q-7.6 19.2 -7.2 18.45 -6.8 17.75 -7.05 17 -10.7 4.85 -6.4 -5.9 -5 -9.3 -2.95 -12.2Z"/><path fill="#003B57" stroke="none" d="M2.25 21.65Q2.5 20.9 2.15 20.2 .4 17 -3.1 15.9 -6.6 14.8 -9.85 16.5 -13.1 18.25 -14.15 21.75 -15.2 25.25 -13.5 28.5 -12.95 29.5 -11.8 29.5 -11.3 29.5 -10.9 29.3 -10.2 28.95 -9.95 28.15 -9.7 27.35 -10.1 26.65 -11.05 24.85 -10.45 22.85 -9.8 20.9 -8 19.95 -6.25 18.95 -4.25 19.6 -2.25 20.15 -1.3 22 -.95 22.7 -.15 22.95 .6 23.2 1.3 22.8 2 22.4 2.25 21.65Z"/><path fill="#003B57" stroke="none" d="M11.15 -25Q7.8 -29.65 3.45 -29.45 -.95 -29.2 -3.75 -24.15 -6.5 -19.15 -6.15 -12.3 -5.75 -5.45 -2.35 -.8 1 3.85 5.35 3.6 9.7 3.4 12.5 -1.65 15.3 -6.65 14.9 -13.5 14.55 -20.35 11.15 -25Z"/><path fill="#BDEAFF" stroke="none" d="M-4.9 -.5L-14.2 -4.9 -14.85 .1Q-15.25 6 -13.85 10.35L-6.6 10.95Q-6.4 3.45 -4.9 -.5Z"/></g></defs><g id=".__D0.__9C.__D0.__BE.__D0.__BD.__D1.__82.__D0.__B0.__D0.__B6.__D0.__BD.__D1.__8B.__D0.__B9-.__D0.__BA.__D0.__B0.__D0.__B4.__D1.__80-1" overflow="visible"><g id=".__D0.__A1.__D0.__B8.__D0.__BC.__D0.__B2.__D0.__BE.__D0.__BB-1" transform="translate(101.5 98.1)"><animateTransform attributeName="transform" additive="replace" type="translate" repeatCount="indefinite" dur="2s" keyTimes="0;.483;.983;1" values="101.5,98.1;101.5,92.1;101.5,98.1;101.5,98.1"/><g display="none"><use xlink:href="#.__D0.__90.__D0.__BD.__D0.__B8.__D0.__BC.__D0.__B0.__D1.__86.__D0.__B8.__D1.__8F-1f0" transform="translate(-.7 12.3)"/><animate attributeName="display" repeatCount="indefinite" dur="2s" keyTimes="0;.983;1" values="none;inline;inline"/></g><g display="none"><use xlink:href="#.__D0.__90.__D0.__BD.__D0.__B8.__D0.__BC.__D0.__B0.__D1.__86.__D0.__B8.__D1.__8F-1f0" transform="translate(-.7 12.5)"/><animate attributeName="display" repeatCount="indefinite" dur="2s" keyTimes="0;.95;.967;1" values="none;inline;none;none"/></g><g display="none"><use xlink:href="#.__D0.__90.__D0.__BD.__D0.__B8.__D0.__BC.__D0.__B0.__D1.__86.__D0.__B8.__D1.__8F-1f27o27" transform="translate(-.7 12.6)"/><animate attributeName="display" repeatCount="indefinite" dur="2s" keyTimes="0;.933;.95;1" values="none;inline;none;none"/></g><g display="none"><use xlink:href="#.__D0.__90.__D0.__BD.__D0.__B8.__D0.__BC.__D0.__B0.__D1.__86.__D0.__B8.__D1.__8F-1f26o26" transform="translate(-.7 12.7)"/><animate attributeName="display" repeatCount="indefinite" dur="2s" keyTimes="0;.917;.933;1" values="none;inline;none;none"/></g><g display="none"><use xlink:href="#.__D0.__90.__D0.__BD.__D0.__B8.__D0.__BC.__D0.__B0.__D1.__86.__D0.__B8.__D1.__8F-1f25o25" transform="translate(-.7 12.8)"/><animate attributeName="display" repeatCount="indefinite" dur="2s" keyTimes="0;.9;.917;1" values="none;inline;none;none"/></g><g display="none"><use xlink:href="#.__D0.__90.__D0.__BD.__D0.__B8.__D0.__BC.__D0.__B0.__D1.__86.__D0.__B8.__D1.__8F-1f24o24" transform="translate(-.7 12.9)"/><animate attributeName="display" repeatCount="indefinite" dur="2s" keyTimes="0;.883;.9;1" values="none;inline;none;none"/></g><g display="none"><use xlink:href="#.__D0.__90.__D0.__BD.__D0.__B8.__D0.__BC.__D0.__B0.__D1.__86.__D0.__B8.__D1.__8F-1f23o23" transform="translate(-.7 13)"/><animate attributeName="display" repeatCount="indefinite" dur="2s" keyTimes="0;.867;.883;1" values="none;inline;none;none"/></g><g display="none"><use xlink:href="#.__D0.__90.__D0.__BD.__D0.__B8.__D0.__BC.__D0.__B0.__D1.__86.__D0.__B8.__D1.__8F-1f22o22" transform="translate(-.7 13.1)"/><animate attributeName="display" repeatCount="indefinite" dur="2s" keyTimes="0;.85;.867;1" values="none;inline;none;none"/></g><g display="none"><use xlink:href="#.__D0.__90.__D0.__BD.__D0.__B8.__D0.__BC.__D0.__B0.__D1.__86.__D0.__B8.__D1.__8F-1f21o21" transform="translate(-.7 13.2)"/><animate attributeName="display" repeatCount="indefinite" dur="2s" keyTimes="0;.833;.85;1" values="none;inline;none;none"/></g><g display="none"><use xlink:href="#.__D0.__90.__D0.__BD.__D0.__B8.__D0.__BC.__D0.__B0.__D1.__86.__D0.__B8.__D1.__8F-1f20o20" transform="translate(-.7 13.3)"/><animate attributeName="display" repeatCount="indefinite" dur="2s" keyTimes="0;.817;.833;1" values="none;inline;none;none"/></g><g display="none"><use xlink:href="#.__D0.__90.__D0.__BD.__D0.__B8.__D0.__BC.__D0.__B0.__D1.__86.__D0.__B8.__D1.__8F-1f19o19" transform="translate(-.7 13.4)"/><animate attributeName="display" repeatCount="indefinite" dur="2s" keyTimes="0;.8;.817;1" values="none;inline;none;none"/></g><g display="none"><use xlink:href="#.__D0.__90.__D0.__BD.__D0.__B8.__D0.__BC.__D0.__B0.__D1.__86.__D0.__B8.__D1.__8F-1f18o18" transform="translate(-.7 13.5)"/><animate attributeName="display" repeatCount="indefinite" dur="2s" keyTimes="0;.783;.8;1" values="none;inline;none;none"/></g><g display="none"><use xlink:href="#.__D0.__90.__D0.__BD.__D0.__B8.__D0.__BC.__D0.__B0.__D1.__86.__D0.__B8.__D1.__8F-1f17o17" transform="translate(-.7 13.6)"/><animate attributeName="display" repeatCount="indefinite" dur="2s" keyTimes="0;.767;.783;1" values="none;inline;none;none"/></g><g display="none"><use xlink:href="#.__D0.__90.__D0.__BD.__D0.__B8.__D0.__BC.__D0.__B0.__D1.__86.__D0.__B8.__D1.__8F-1f16o16" transform="translate(-.7 13.7)"/><animate attributeName="display" repeatCount="indefinite" dur="2s" keyTimes="0;.75;.767;1" values="none;inline;none;none"/></g><g display="none"><use xlink:href="#.__D0.__90.__D0.__BD.__D0.__B8.__D0.__BC.__D0.__B0.__D1.__86.__D0.__B8.__D1.__8F-1f15o15" transform="translate(-.7 13.8)"/><animate attributeName="display" repeatCount="indefinite" dur="2s" keyTimes="0;.733;.75;1" values="none;inline;none;none"/></g><g display="none"><use xlink:href="#.__D0.__90.__D0.__BD.__D0.__B8.__D0.__BC.__D0.__B0.__D1.__86.__D0.__B8.__D1.__8F-1f14o14" transform="translate(-.7 13.9)"/><animate attributeName="display" repeatCount="indefinite" dur="2s" keyTimes="0;.717;.733;1" values="none;inline;none;none"/></g><g display="none"><use xlink:href="#.__D0.__90.__D0.__BD.__D0.__B8.__D0.__BC.__D0.__B0.__D1.__86.__D0.__B8.__D1.__8F-1f13o13" transform="translate(-.7 14)"/><animate attributeName="display" repeatCount="indefinite" dur="2s" keyTimes="0;.7;.717;1" values="none;inline;none;none"/></g><g display="none"><use xlink:href="#.__D0.__90.__D0.__BD.__D0.__B8.__D0.__BC.__D0.__B0.__D1.__86.__D0.__B8.__D1.__8F-1f12o12" transform="translate(-.7 14.1)"/><animate attributeName="display" repeatCount="indefinite" dur="2s" keyTimes="0;.683;.7;1" values="none;inline;none;none"/></g><g display="none"><use xlink:href="#.__D0.__90.__D0.__BD.__D0.__B8.__D0.__BC.__D0.__B0.__D1.__86.__D0.__B8.__D1.__8F-1f11o11" transform="translate(-.7 14.2)"/><animate attributeName="display" repeatCount="indefinite" dur="2s" keyTimes="0;.667;.683;1" values="none;inline;none;none"/></g><g display="none"><use xlink:href="#.__D0.__90.__D0.__BD.__D0.__B8.__D0.__BC.__D0.__B0.__D1.__86.__D0.__B8.__D1.__8F-1f10o10" transform="translate(-.7 14.3)"/><animate attributeName="display" repeatCount="indefinite" dur="2s" keyTimes="0;.65;.667;1" values="none;inline;none;none"/></g><g display="none"><use xlink:href="#.__D0.__90.__D0.__BD.__D0.__B8.__D0.__BC.__D0.__B0.__D1.__86.__D0.__B8.__D1.__8F-1f9o9" transform="translate(-.7 14.4)"/><animate attributeName="display" repeatCount="indefinite" dur="2s" keyTimes="0;.633;.65;1" values="none;inline;none;none"/></g><g display="none"><use xlink:href="#.__D0.__90.__D0.__BD.__D0.__B8.__D0.__BC.__D0.__B0.__D1.__86.__D0.__B8.__D1.__8F-1f8o8" transform="translate(-.7 14.5)"/><animate attributeName="display" repeatCount="indefinite" dur="2s" keyTimes="0;.617;.633;1" values="none;inline;none;none"/></g><g display="none"><use xlink:href="#.__D0.__90.__D0.__BD.__D0.__B8.__D0.__BC.__D0.__B0.__D1.__86.__D0.__B8.__D1.__8F-1f7o7" transform="translate(-.7 14.6)"/><animate attributeName="display" repeatCount="indefinite" dur="2s" keyTimes="0;.6;.617;1" values="none;inline;none;none"/></g><g display="none"><use xlink:href="#.__D0.__90.__D0.__BD.__D0.__B8.__D0.__BC.__D0.__B0.__D1.__86.__D0.__B8.__D1.__8F-1f6o6" transform="translate(-.7 14.7)"/><animate attributeName="display" repeatCount="indefinite" dur="2s" keyTimes="0;.583;.6;1" values="none;inline;none;none"/></g><g display="none"><use xlink:href="#.__D0.__90.__D0.__BD.__D0.__B8.__D0.__BC.__D0.__B0.__D1.__86.__D0.__B8.__D1.__8F-1f5o5" transform="translate(-.7 14.8)"/><animate attributeName="display" repeatCount="indefinite" dur="2s" keyTimes="0;.567;.583;1" values="none;inline;none;none"/></g><g display="none"><use xlink:href="#.__D0.__90.__D0.__BD.__D0.__B8.__D0.__BC.__D0.__B0.__D1.__86.__D0.__B8.__D1.__8F-1f4o4" transform="translate(-.7 14.9)"/><animate attributeName="display" repeatCount="indefinite" dur="2s" keyTimes="0;.55;.567;1" values="none;inline;none;none"/></g><g display="none"><use xlink:href="#.__D0.__90.__D0.__BD.__D0.__B8.__D0.__BC.__D0.__B0.__D1.__86.__D0.__B8.__D1.__8F-1f3o3" transform="translate(-.7 15)"/><animate attributeName="display" repeatCount="indefinite" dur="2s" keyTimes="0;.533;.55;1" values="none;inline;none;none"/></g><g display="none"><use xlink:href="#.__D0.__90.__D0.__BD.__D0.__B8.__D0.__BC.__D0.__B0.__D1.__86.__D0.__B8.__D1.__8F-1f2o2" transform="translate(-.7 15.1)"/><animate attributeName="display" repeatCount="indefinite" dur="2s" keyTimes="0;.517;.533;1" values="none;inline;none;none"/></g><g display="none"><use xlink:href="#.__D0.__90.__D0.__BD.__D0.__B8.__D0.__BC.__D0.__B0.__D1.__86.__D0.__B8.__D1.__8F-1f0" transform="translate(-.7 15.3)"/><animate attributeName="display" repeatCount="indefinite" dur="2s" keyTimes="0;.483;.5;1" values="none;inline;none;none"/></g><g display="none"><use xlink:href="#.__D0.__90.__D0.__BD.__D0.__B8.__D0.__BC.__D0.__B0.__D1.__86.__D0.__B8.__D1.__8F-1f0" transform="translate(-.7 15.2)"/><animate attributeName="display" repeatCount="indefinite" dur="2s" keyTimes="0;.467;.483;.5;.517;1" values="none;inline;none;inline;none;none"/></g><g display="none"><use xlink:href="#.__D0.__90.__D0.__BD.__D0.__B8.__D0.__BC.__D0.__B0.__D1.__86.__D0.__B8.__D1.__8F-1f27o27" transform="translate(-.7 15.1)"/><animate attributeName="display" repeatCount="indefinite" dur="2s" keyTimes="0;.45;.467;1" values="none;inline;none;none"/></g><g display="none"><use xlink:href="#.__D0.__90.__D0.__BD.__D0.__B8.__D0.__BC.__D0.__B0.__D1.__86.__D0.__B8.__D1.__8F-1f26o26" transform="translate(-.7 15)"/><animate attributeName="display" repeatCount="indefinite" dur="2s" keyTimes="0;.433;.45;1" values="none;inline;none;none"/></g><g display="none"><use xlink:href="#.__D0.__90.__D0.__BD.__D0.__B8.__D0.__BC.__D0.__B0.__D1.__86.__D0.__B8.__D1.__8F-1f25o25" transform="translate(-.7 14.9)"/><animate attributeName="display" repeatCount="indefinite" dur="2s" keyTimes="0;.417;.433;1" values="none;inline;none;none"/></g><g display="none"><use xlink:href="#.__D0.__90.__D0.__BD.__D0.__B8.__D0.__BC.__D0.__B0.__D1.__86.__D0.__B8.__D1.__8F-1f24o24" transform="translate(-.7 14.8)"/><animate attributeName="display" repeatCount="indefinite" dur="2s" keyTimes="0;.4;.417;1" values="none;inline;none;none"/></g><g display="none"><use xlink:href="#.__D0.__90.__D0.__BD.__D0.__B8.__D0.__BC.__D0.__B0.__D1.__86.__D0.__B8.__D1.__8F-1f23o23" transform="translate(-.7 14.7)"/><animate attributeName="display" repeatCount="indefinite" dur="2s" keyTimes="0;.383;.4;1" values="none;inline;none;none"/></g><g display="none"><use xlink:href="#.__D0.__90.__D0.__BD.__D0.__B8.__D0.__BC.__D0.__B0.__D1.__86.__D0.__B8.__D1.__8F-1f22o22" transform="translate(-.7 14.6)"/><animate attributeName="display" repeatCount="indefinite" dur="2s" keyTimes="0;.367;.383;1" values="none;inline;none;none"/></g><g display="none"><use xlink:href="#.__D0.__90.__D0.__BD.__D0.__B8.__D0.__BC.__D0.__B0.__D1.__86.__D0.__B8.__D1.__8F-1f21o21" transform="translate(-.7 14.45)"/><animate attributeName="display" repeatCount="indefinite" dur="2s" keyTimes="0;.35;.367;1" values="none;inline;none;none"/></g><g display="none"><use xlink:href="#.__D0.__90.__D0.__BD.__D0.__B8.__D0.__BC.__D0.__B0.__D1.__86.__D0.__B8.__D1.__8F-1f20o20" transform="translate(-.7 14.35)"/><animate attributeName="display" repeatCount="indefinite" dur="2s" keyTimes="0;.333;.35;1" values="none;inline;none;none"/></g><g display="none"><use xlink:href="#.__D0.__90.__D0.__BD.__D0.__B8.__D0.__BC.__D0.__B0.__D1.__86.__D0.__B8.__D1.__8F-1f19o19" transform="translate(-.7 14.25)"/><animate attributeName="display" repeatCount="indefinite" dur="2s" keyTimes="0;.317;.333;1" values="none;inline;none;none"/></g><g display="none"><use xlink:href="#.__D0.__90.__D0.__BD.__D0.__B8.__D0.__BC.__D0.__B0.__D1.__86.__D0.__B8.__D1.__8F-1f18o18" transform="translate(-.7 14.15)"/><animate attributeName="display" repeatCount="indefinite" dur="2s" keyTimes="0;.3;.317;1" values="none;inline;none;none"/></g><g display="none"><use xlink:href="#.__D0.__90.__D0.__BD.__D0.__B8.__D0.__BC.__D0.__B0.__D1.__86.__D0.__B8.__D1.__8F-1f17o17" transform="translate(-.7 14.05)"/><animate attributeName="display" repeatCount="indefinite" dur="2s" keyTimes="0;.283;.3;1" values="none;inline;none;none"/></g><g display="none"><use xlink:href="#.__D0.__90.__D0.__BD.__D0.__B8.__D0.__BC.__D0.__B0.__D1.__86.__D0.__B8.__D1.__8F-1f16o16" transform="translate(-.7 13.95)"/><animate attributeName="display" repeatCount="indefinite" dur="2s" keyTimes="0;.267;.283;1" values="none;inline;none;none"/></g><g display="none"><use xlink:href="#.__D0.__90.__D0.__BD.__D0.__B8.__D0.__BC.__D0.__B0.__D1.__86.__D0.__B8.__D1.__8F-1f15o15" transform="translate(-.7 13.85)"/><animate attributeName="display" repeatCount="indefinite" dur="2s" keyTimes="0;.25;.267;1" values="none;inline;none;none"/></g><g display="none"><use xlink:href="#.__D0.__90.__D0.__BD.__D0.__B8.__D0.__BC.__D0.__B0.__D1.__86.__D0.__B8.__D1.__8F-1f14o14" transform="translate(-.7 13.75)"/><animate attributeName="display" repeatCount="indefinite" dur="2s" keyTimes="0;.233;.25;1" values="none;inline;none;none"/></g><g display="none"><use xlink:href="#.__D0.__90.__D0.__BD.__D0.__B8.__D0.__BC.__D0.__B0.__D1.__86.__D0.__B8.__D1.__8F-1f13o13" transform="translate(-.7 13.65)"/><animate attributeName="display" repeatCount="indefinite" dur="2s" keyTimes="0;.217;.233;1" values="none;inline;none;none"/></g><g display="none"><use xlink:href="#.__D0.__90.__D0.__BD.__D0.__B8.__D0.__BC.__D0.__B0.__D1.__86.__D0.__B8.__D1.__8F-1f12o12" transform="translate(-.7 13.55)"/><animate attributeName="display" repeatCount="indefinite" dur="2s" keyTimes="0;.2;.217;1" values="none;inline;none;none"/></g><g display="none"><use xlink:href="#.__D0.__90.__D0.__BD.__D0.__B8.__D0.__BC.__D0.__B0.__D1.__86.__D0.__B8.__D1.__8F-1f11o11" transform="translate(-.7 13.45)"/><animate attributeName="display" repeatCount="indefinite" dur="2s" keyTimes="0;.183;.2;1" values="none;inline;none;none"/></g><g display="none"><use xlink:href="#.__D0.__90.__D0.__BD.__D0.__B8.__D0.__BC.__D0.__B0.__D1.__86.__D0.__B8.__D1.__8F-1f10o10" transform="translate(-.7 13.35)"/><animate attributeName="display" repeatCount="indefinite" dur="2s" keyTimes="0;.167;.183;1" values="none;inline;none;none"/></g><g display="none"><use xlink:href="#.__D0.__90.__D0.__BD.__D0.__B8.__D0.__BC.__D0.__B0.__D1.__86.__D0.__B8.__D1.__8F-1f9o9" transform="translate(-.7 13.25)"/><animate attributeName="display" repeatCount="indefinite" dur="2s" keyTimes="0;.15;.167;1" values="none;inline;none;none"/></g><g display="none"><use xlink:href="#.__D0.__90.__D0.__BD.__D0.__B8.__D0.__BC.__D0.__B0.__D1.__86.__D0.__B8.__D1.__8F-1f8o8" transform="translate(-.7 13.15)"/><animate attributeName="display" repeatCount="indefinite" dur="2s" keyTimes="0;.133;.15;1" values="none;inline;none;none"/></g><g display="none"><use xlink:href="#.__D0.__90.__D0.__BD.__D0.__B8.__D0.__BC.__D0.__B0.__D1.__86.__D0.__B8.__D1.__8F-1f7o7" transform="translate(-.7 13)"/><animate attributeName="display" repeatCount="indefinite" dur="2s" keyTimes="0;.117;.133;1" values="none;inline;none;none"/></g><g display="none"><use xlink:href="#.__D0.__90.__D0.__BD.__D0.__B8.__D0.__BC.__D0.__B0.__D1.__86.__D0.__B8.__D1.__8F-1f6o6" transform="translate(-.7 12.9)"/><animate attributeName="display" repeatCount="indefinite" dur="2s" keyTimes="0;.1;.117;1" values="none;inline;none;none"/></g><g display="none"><use xlink:href="#.__D0.__90.__D0.__BD.__D0.__B8.__D0.__BC.__D0.__B0.__D1.__86.__D0.__B8.__D1.__8F-1f5o5" transform="translate(-.7 12.8)"/><animate attributeName="display" repeatCount="indefinite" dur="2s" keyTimes="0;.083;.1;1" values="none;inline;none;none"/></g><g display="none"><use xlink:href="#.__D0.__90.__D0.__BD.__D0.__B8.__D0.__BC.__D0.__B0.__D1.__86.__D0.__B8.__D1.__8F-1f4o4" transform="translate(-.7 12.7)"/><animate attributeName="display" repeatCount="indefinite" dur="2s" keyTimes="0;.067;.083;1" values="none;inline;none;none"/></g><g display="none"><use xlink:href="#.__D0.__90.__D0.__BD.__D0.__B8.__D0.__BC.__D0.__B0.__D1.__86.__D0.__B8.__D1.__8F-1f3o3" transform="translate(-.7 12.6)"/><animate attributeName="display" repeatCount="indefinite" dur="2s" keyTimes="0;.05;.067;1" values="none;inline;none;none"/></g><g display="none"><use xlink:href="#.__D0.__90.__D0.__BD.__D0.__B8.__D0.__BC.__D0.__B0.__D1.__86.__D0.__B8.__D1.__8F-1f2o2" transform="translate(-.7 12.5)"/><animate attributeName="display" repeatCount="indefinite" dur="2s" keyTimes="0;.033;.05;1" values="none;inline;none;none"/></g><g display="none"><use xlink:href="#.__D0.__90.__D0.__BD.__D0.__B8.__D0.__BC.__D0.__B0.__D1.__86.__D0.__B8.__D1.__8F-1f0" transform="translate(-.7 12.4)"/><animate attributeName="display" repeatCount="indefinite" dur="2s" keyTimes="0;.017;.033;.967;.983;1" values="none;inline;none;inline;none;none"/></g><g><use xlink:href="#.__D0.__90.__D0.__BD.__D0.__B8.__D0.__BC.__D0.__B0.__D1.__86.__D0.__B8.__D1.__8F-1f0" transform="translate(-.7 12.3)"/><animate attributeName="display" repeatCount="indefinite" dur="2s" keyTimes="0;.017;1" values="inline;none;none"/></g><g id=".__D0.__A1.__D0.__B8.__D0.__BC.__D0.__B2.__D0.__BE.__D0.__BB-2" transform="translate(-.85 22.65)"><path fill="#FFEFD4" stroke="none" d="M26.05 22.75Q26.05 18.75 18.45 15.9 10.8 13.05 0 13.05 -10.8 13.05 -18.45 15.9 -26.1 18.75 -26.1 22.75 -21.05 27.55 -16.35 29.65 -9.85 32.45 0 32.45 9.7 32.45 17.3 29.05 23.25 26.35 26.05 22.75Z"/><path fill="#003B57" stroke="none" d="M35.65 -24Q35.65 -38.7 25.5 -44.8 16.95 -49.9 0 -49.9 -17 -49.9 -25.55 -44.8 -35.7 -38.7 -35.7 -24 -35.7 -15.25 -32.7 -2.55 -29.65 10.2 -24.9 21.55 -19.25 35.1 -12.75 42.5 -6.2 49.95 0 49.95 6.2 49.95 12.7 42.5 19.2 35.1 24.9 21.55 29.65 10.2 32.65 -2.55 35.65 -15.25 35.65 -24Z"/><path fill="#BDEAFF" stroke="none" d="M37.2 -24Q37.2 -39.55 26.3 -46.1 17.5 -51.45 0 -51.45 -17.5 -51.45 -26.35 -46.1 -37.25 -39.55 -37.25 -24 -37.25 -17.35 -35.4 -7.85 -33.55 1.7 -30.3 11.55 -20.05 15.8 -7.95 16.9 -7.85 13.9 -5.65 11.8 -3.5 9.7 -.45 9.7 2.55 9.7 4.75 11.8 6.9 13.9 7.05 16.9 19.5 15.8 30.4 11.15 33.6 1.45 35.4 -8.05 37.2 -17.4 37.2 -24Z"/><path fill="#BDEAFF" stroke="none" d="M26.05 22.75Q13.75 29.4 0 29.4 -13.8 29.4 -26.1 22.75 -20.6 35.65 -14.3 43.05 -7.15 51.5 0 51.5 7.2 51.5 14.3 43.05 20.6 35.65 26.05 22.75Z"/><path fill="#003B57" stroke="none" d="M5.4 25Q5.4 21.75 3.6 19.5 1.8 17.2 -.8 17.2 -3.35 17.2 -5.15 19.5 -7 21.8 -7 25 -7 28.2 -5.15 30.5 -3.35 32.8 -.8 32.8 1.8 32.8 3.6 30.5 5.4 28.25 5.4 25Z"/><path fill="#FFF" stroke="none" d="M2.85 21.7Q2.85 18.8 1.8 16.7 .7 14.65 -.8 14.65 -2.3 14.65 -3.35 16.7 -4.45 18.8 -4.45 21.7 -4.45 24.6 -3.35 26.65 -2.3 28.7 -.8 28.7 .7 28.7 1.8 26.65 2.85 24.6 2.85 21.7Z"/><path fill="#003B57" stroke="none" d="M8.9 -24.95Q8.9 -28.6 6.3 -31.25 3.7 -33.85 0 -33.85 -3.7 -33.85 -6.35 -31.25 -8.95 -28.65 -8.95 -24.95 -8.95 -21.25 -6.35 -18.6 -3.7 -16 0 -16 3.7 -16 6.3 -18.6 8.9 -21.25 8.9 -24.95Z"/><path fill="#000" fill-opacity=".058" stroke="none" d="M30.6 -40.45Q30.6 -42.5 26.25 -44.5 20.65 -46.6 18.1 -47.85 10.5 -51.45 -.2 -51.45 -10.95 -51.45 -18.5 -47.85 -21 -46.6 -26.1 -44.9 -29.95 -43.3 -29.95 -41.25 -29.95 -38.85 -26.1 -35.45 -22.7 -32.45 -18.5 -30.45 -15.9 -29.2 -10.2 -33.9 -3.8 -39.15 -.35 -39.15 3.1 -39.15 9.65 -33.9 15.5 -29.2 18.1 -30.45 23.05 -32.8 26.25 -35.05 30.6 -38.15 30.6 -40.45Z"/></g><g id=".__D0.__90.__D0.__BD.__D0.__B8.__D0.__BC.__D0.__B0.__D1.__86.__D0.__B8.__D1.__8F-5" transform="translate(.1 -44.45)"><animateTransform attributeName="transform" additive="replace" type="translate" repeatCount="indefinite" dur="2s" keyTimes="0;.483;.983;1" values=".1,-44.45;.1,-42.45;.1,-44.45;.1,-44.45"/><path fill="#003B57" stroke="none" d="M-32.4 -8.15Q-33.4 -11.3 -34.95 -11.35 -36.45 -11.4 -37.6 -8.25 -38.7 -5.1 -38.8 -.7 -38.85 3.75 -37.85 6.85 -36.85 10 -35.3 10.05 -33.8 10.1 -32.65 6.95 -31.5 3.8 -31.45 -.6 -31.35 -5.05 -32.4 -8.15Z"/><path fill="#003B57" stroke="none" d="M37.95 -6.9Q36.9 -10.05 35.4 -10.1 33.9 -10.15 32.75 -7 31.65 -3.9 31.55 .55 31.5 4.95 32.5 8.1 33.5 11.25 35 11.3 36.55 11.3 37.65 8.2 38.8 5.1 38.85 .65 38.95 -3.75 37.95 -6.9Z"/><path fill="#BDEAFF" stroke="none" d="M26.85 -20.5Q16.05 -29.35 .55 -29.65 -14.95 -29.9 -26.05 -21.45 -37.1 -12.95 -37.35 -.7 -37.55 11.55 -26.8 20.45 -16 29.3 -.5 29.6 15 29.85 26.1 21.4 37.25 12.9 37.45 .65 37.65 -11.6 26.85 -20.5Z"/><path fill="#66C0CC" stroke="none" d="M28.6 -5.3Q28.7 -9.3 25.9 -12.2 23.1 -15.1 19.05 -15.2L-18.45 -15.85Q-22.45 -15.9 -25.35 -13.15 -28.25 -10.35 -28.35 -6.3L-28.55 5.25Q-28.6 9.25 -25.8 12.15 -23 15.1 -19 15.15L18.5 15.8Q22.55 15.9 25.45 13.05 28.35 10.25 28.4 6.25L28.6 -5.3Z"/><path fill="#003B57" stroke="none" d="M27.25 -5.35Q27.3 -8.8 24.9 -11.3 22.5 -13.75 19.05 -13.8L-18.45 -14.5Q-21.9 -14.55 -24.4 -12.15 -26.85 -9.75 -26.95 -6.3L-27.15 5.3Q-27.2 8.75 -24.8 11.25 -22.4 13.7 -18.95 13.75L18.55 14.4Q22 14.5 24.5 12.1 26.95 9.7 27 6.25L27.25 -5.35Z"/><path fill="#FFF" stroke="none" d="M-10.7 -.65Q-10.7 -2.05 -11.7 -3 -12.65 -4 -14.05 -4 -15.45 -4 -16.4 -3 -17.4 -2.05 -17.4 -.65 -17.4 .75 -16.4 1.7 -15.45 2.7 -14.05 2.7 -12.65 2.7 -11.7 1.7 -10.7 .75 -10.7 -.65Z"/><path fill="#FFF" stroke="none" d="M17.5 -.65Q17.5 -2.05 16.5 -3 15.55 -4 14.15 -4 12.75 -4 11.8 -3 10.8 -2.05 10.8 -.65 10.8 .75 11.8 1.7 12.75 2.7 14.15 2.7 15.55 2.7 16.5 1.7 17.5 .75 17.5 -.65Z"/><path fill="#FFF" stroke="none" d="M-6.75 8L-4.25 8 -4.3 5.5 -6.75 5.5 -6.75 8Z"/><path fill="#FFF" stroke="none" d="M3.2 7.95L5.7 7.95 5.65 5.45 3.2 5.45 3.2 7.95Z"/><path fill="#FFF" stroke="none" d="M-4.25 10.45L-1.75 10.45 -1.8 8 -4.25 8 -4.25 10.45Z"/><path fill="#FFF" stroke="none" d="M.7 10.45L3.2 10.45 3.2 7.95 .7 7.95 .7 10.45Z"/><path fill="#FFF" stroke="none" d="M.7 10.45L.7 7.95 -1.8 8 -1.75 10.45 .7 10.45Z"/></g></g><g id=".__D0.__90.__D0.__BD.__D0.__B8.__D0.__BC.__D0.__B0.__D1.__86.__D0.__B8.__D1.__8F-4" transform="translate(100.6 186.2)"><animateTransform attributeName="transform" additive="replace" type="translate" repeatCount="indefinite" dur="2s" keyTimes="0;.483;.983;1" values="100.6,186.2;100.67,186.23;100.6,186.2;100.6,186.2"/><animateTransform attributeName="transform" additive="sum" type="scale" repeatCount="indefinite" dur="2s" keyTimes="0;.483;.983;1" values="1,1;.8,.8;1,1;1,1"/><animateTransform attributeName="transform" additive="sum" type="translate" repeatCount="indefinite" dur="2s" keyTimes="0;.483;.983;1" values="0,0;-.15,-.1;0,0;0,0"/><path fill="#000" fill-opacity=".058" stroke="none" d="M20.55 -3.85Q12.05 -5.45 0 -5.45 -12.05 -5.45 -20.55 -3.85 -29.05 -2.25 -29.05 0 -29.05 2.25 -20.55 3.85 -12.05 5.45 0 5.45 12.05 5.45 20.55 3.85 29.05 2.25 29.05 0 29.05 -2.25 20.55 -3.85Z"/></g></g></svg>